<?xml version="1.0" encoding="utf-8"?>
<?xml-stylesheet type="text/xsl" href="rss1.xsl"?>
<rss version="2.0" xmlns:atom="http://www.w3.org/2005/Atom" xmlns:content="http://purl.org/rss/1.0/modules/content/" xmlns:dc="http://purl.org/dc/elements/1.1/" xmlns:media="http://search.yahoo.com/mrss/">
<channel>
 <title>Getty</title>
 <link>http://www.gettyimg.com/</link>
 <atom:link href="http://www.gettyimg.com/" rel="self" type="application/rss+xml" />

 
                <item>
                <title><![CDATA[【Albums (lossless)】FLAC - Terence Lam - SEVEN (2021)]]></title>
                <link><![CDATA[https://sharemania.us/threads/terence-lam-seven-2021.228091/]]></link>
                <description><![CDATA[<article>
<blockquote class="messageText SelectQuoteContainer ugc baseHtml">
<div style="text-align: center"><b><span style="font-size: 22px">Terence Lam - SEVEN (2021)</span></b><br>
24B-48kHz FLAC<br>
<img src="https://cdn.discordapp.com/attachments/1119340925215330387/1150160617748041738/cover.png" class="bbCodeImage LbImage" alt="[​IMG]" data-url="https://cdn.discordapp.com/attachments/1119340925215330387/1150160617748041738/cover.png" style=""> <br>
Tracklist:<br>
<div class="bbCodeBlock bbCodeCode">
<div class="type">Code:</div>
<pre>1. 特倫斯夢遊仙境
2. 難道喜歡處女座
3. 神奇的糊塗魔藥
4. 愛因斯坦羅森橋
5. 時光倒流一句話
6. 難道喜歡處女座 (Alter Ego)
7. 在空中的這一秒
</pre>
</div>Download:<br>
<div class="bbCodeBlock bbCodeVfcHH HiddenContent">
<div class="attribution type">Hidden Content:</div>
<blockquote>You must either reply or click 'Like' to see the hidden information contained here.</blockquote>
</div><span style="font-size: 10px"><span style="color: #ff0000">Please notify me if the link is down.</span></span>​</div>
<div class="messageTextEndMarker">&nbsp;</div>
</blockquote>
</article>]]></description>
                <author><![CDATA[Kakuzato]]></author>
                </item>

                
                <item>
                <title><![CDATA[【HD Live Performances】UHDTV 4K - The Chainsmokers - Live @ The Town 2023 UHDTV H265 2160p DD2.0-ilya2129]]></title>
                <link><![CDATA[https://sharemania.us/threads/the-chainsmokers-live-the-town-2023-uhdtv-h265-2160p-dd2-0-ilya2129.228089/]]></link>
                <description><![CDATA[<article>
<blockquote class="messageText SelectQuoteContainer ugc baseHtml">
<div style="text-align: center"><img src="https://i122.fastpic.org/big/2023/0903/f2/ce9f496df0f384cc9c966a9eba2bd3f2.png" class="bbCodeImage LbImage" alt="[​IMG]" data-url="https://i122.fastpic.org/big/2023/0903/f2/ce9f496df0f384cc9c966a9eba2bd3f2.png" style=""><br>
<br>
<a href="https://postimg.cc/5j59kS99" target="_blank" class="externalLink" rel="nofollow"><img src="https://i.postimg.cc/5j59kS99/vlcsnap-2023-09-09-16h12m31s871.png" class="bbCodeImage LbImage" alt="[​IMG]" data-url="https://i.postimg.cc/5j59kS99/vlcsnap-2023-09-09-16h12m31s871.png"></a> <a href="https://postimg.cc/dL4sJQTz" target="_blank" class="externalLink" rel="nofollow"><img src="https://i.postimg.cc/dL4sJQTz/vlcsnap-2023-09-09-16h12m34s853.png" class="bbCodeImage LbImage" alt="[​IMG]" data-url="https://i.postimg.cc/dL4sJQTz/vlcsnap-2023-09-09-16h12m34s853.png"></a> <a href="https://postimg.cc/21yzypQ3" target="_blank" class="externalLink" rel="nofollow"><img src="https://i.postimg.cc/21yzypQ3/vlcsnap-2023-09-09-16h12m38s446.png" class="bbCodeImage LbImage" alt="[​IMG]" data-url="https://i.postimg.cc/21yzypQ3/vlcsnap-2023-09-09-16h12m38s446.png"></a> <a href="https://postimg.cc/xXZ9bs55" target="_blank" class="externalLink" rel="nofollow"><img src="https://i.postimg.cc/xXZ9bs55/vlcsnap-2023-09-09-16h12m42s241.png" class="bbCodeImage LbImage" alt="[​IMG]" data-url="https://i.postimg.cc/xXZ9bs55/vlcsnap-2023-09-09-16h12m42s241.png"></a> <a href="https://postimg.cc/7fxPvJb3" target="_blank" class="externalLink" rel="nofollow"><img src="https://i.postimg.cc/7fxPvJb3/vlcsnap-2023-09-09-16h12m52s650.png" class="bbCodeImage LbImage" alt="[​IMG]" data-url="https://i.postimg.cc/7fxPvJb3/vlcsnap-2023-09-09-16h12m52s650.png"></a> <a href="https://postimg.cc/06JPGpHs" target="_blank" class="externalLink" rel="nofollow"><img src="https://i.postimg.cc/06JPGpHs/vlcsnap-2023-09-09-16h12m56s247.png" class="bbCodeImage LbImage" alt="[​IMG]" data-url="https://i.postimg.cc/06JPGpHs/vlcsnap-2023-09-09-16h12m56s247.png"></a> <br>
​</div><br>
<div class="bbCodeBlock bbCodeCode">
<div class="type">Code:</div>
<pre>General
ID                                       : 17 (0x11)
Complete name                            : D:\The Chainsmokers - Live @ The Town 2023 UHDTV H265 2160p DD2.0-ilya2129.ts
Format                                   : MPEG-TS
File size                                : 9.61 GiB
Duration                                 : 1 h 17 min
Overall bit rate mode                    : Variable
Overall bit rate                         : 17.8 Mb/s
Frame rate                               : 59.940 FPS

Video
ID                                       : 4368 (0x1110)
Menu ID                                  : 442 (0x1BA)
Format                                   : HEVC
Format/Info                              : High Efficiency Video Coding
Format profile                           : Main 10@L5.1@Main
Codec ID                                 : 36
Duration                                 : 1 h 17 min
Bit rate                                 : 16.8 Mb/s
Maximum bit rate                         : 17.7 Mb/s
Width                                    : 3 840 pixels
Height                                   : 2 160 pixels
Display aspect ratio                     : 16:9
Frame rate                               : 59.940 (60000/1001) FPS
Color space                              : YUV
Chroma subsampling                       : 4:2:0 (Type 0)
Bit depth                                : 10 bits
Bits/(Pixel*Frame)                       : 0.034
Stream size                              : 9.03 GiB (94%)
Color range                              : Limited
Color primaries                          : BT.709
Transfer characteristics                 : BT.709
Matrix coefficients                      : BT.709

Audio
ID                                       : 4369 (0x1111)
Menu ID                                  : 442 (0x1BA)
Format                                   : AC-3
Format/Info                              : Audio Coding 3
Commercial name                          : Dolby Digital
Codec ID                                 : 6
Duration                                 : 1 h 17 min
Bit rate mode                            : Constant
Bit rate                                 : 192 kb/s
Maximum bit rate                         : 203 kb/s
Channel(s)                               : 2 channels
Channel layout                           : L R
Sampling rate                            : 48.0 kHz
Frame rate                               : 31.250 FPS (1536 SPF)
Compression mode                         : Lossy
Delay relative to video                  : 16 ms
Stream size                              : 106 MiB (1%)
Language                                 : Portuguese
Service kind                             : Complete Main
</pre>
</div>
<div class="bbCodeBlock bbCodeVfcHH HiddenContent">
<div class="attribution type">Hidden Content:</div>
<blockquote>You must reply before you can see the hidden data contained here.</blockquote>
</div>ss
<div class="messageTextEndMarker">&nbsp;</div>
</blockquote>
</article>]]></description>
                <author><![CDATA[ilya2129]]></author>
                </item>

                
                <item>
                <title><![CDATA[【HD Live Performances】UHDTV 4K - Maroon 5 - Live @ The Town 2023 UHDTV H265 2160p DD2.0-ilya2129]]></title>
                <link><![CDATA[https://sharemania.us/threads/maroon-5-live-the-town-2023-uhdtv-h265-2160p-dd2-0-ilya2129.228088/]]></link>
                <description><![CDATA[<article>
<blockquote class="messageText SelectQuoteContainer ugc baseHtml">
<div style="text-align: center"><img src="https://i122.fastpic.org/big/2023/0903/f2/ce9f496df0f384cc9c966a9eba2bd3f2.png" class="bbCodeImage LbImage" alt="[​IMG]" data-url="https://i122.fastpic.org/big/2023/0903/f2/ce9f496df0f384cc9c966a9eba2bd3f2.png" style=""><br>
<br>
<a href="https://postimg.cc/BPFKdL69" target="_blank" class="externalLink" rel="nofollow"><img src="https://i.postimg.cc/BPFKdL69/vlcsnap-2023-09-08-13h15m16s254.png" class="bbCodeImage LbImage" alt="[​IMG]" data-url="https://i.postimg.cc/BPFKdL69/vlcsnap-2023-09-08-13h15m16s254.png"></a> <a href="https://postimg.cc/jLQWPrnX" target="_blank" class="externalLink" rel="nofollow"><img src="https://i.postimg.cc/jLQWPrnX/vlcsnap-2023-09-08-13h15m20s752.png" class="bbCodeImage LbImage" alt="[​IMG]" data-url="https://i.postimg.cc/jLQWPrnX/vlcsnap-2023-09-08-13h15m20s752.png"></a> <a href="https://postimg.cc/Z9DvnFvz" target="_blank" class="externalLink" rel="nofollow"><img src="https://i.postimg.cc/Z9DvnFvz/vlcsnap-2023-09-08-13h15m24s486.png" class="bbCodeImage LbImage" alt="[​IMG]" data-url="https://i.postimg.cc/Z9DvnFvz/vlcsnap-2023-09-08-13h15m24s486.png"></a> <a href="https://postimg.cc/Ny0rQPMx" target="_blank" class="externalLink" rel="nofollow"><img src="https://i.postimg.cc/Ny0rQPMx/vlcsnap-2023-09-08-13h15m32s324.png" class="bbCodeImage LbImage" alt="[​IMG]" data-url="https://i.postimg.cc/Ny0rQPMx/vlcsnap-2023-09-08-13h15m32s324.png"></a> <a href="https://postimg.cc/xX6cpyRN" target="_blank" class="externalLink" rel="nofollow"><img src="https://i.postimg.cc/xX6cpyRN/vlcsnap-2023-09-08-13h15m36s015.png" class="bbCodeImage LbImage" alt="[​IMG]" data-url="https://i.postimg.cc/xX6cpyRN/vlcsnap-2023-09-08-13h15m36s015.png"></a> <a href="https://postimg.cc/PNDvfDt0" target="_blank" class="externalLink" rel="nofollow"><img src="https://i.postimg.cc/PNDvfDt0/vlcsnap-2023-09-08-13h15m40s318.png" class="bbCodeImage LbImage" alt="[​IMG]" data-url="https://i.postimg.cc/PNDvfDt0/vlcsnap-2023-09-08-13h15m40s318.png"></a><br>
​</div><br>
<div class="bbCodeBlock bbCodeCode">
<div class="type">Code:</div>
<pre>General
ID                                       : 17 (0x11)
Complete name                            : D:\Maroon 5 - Live @ The Town 2023 UHDTV H265 2160p DD2.0-ilya2129.ts
Format                                   : MPEG-TS
File size                                : 11.6 GiB
Duration                                 : 1 h 32 min
Overall bit rate mode                    : Variable
Overall bit rate                         : 17.8 Mb/s
Frame rate                               : 59.940 FPS

Video
ID                                       : 4368 (0x1110)
Menu ID                                  : 442 (0x1BA)
Format                                   : HEVC
Format/Info                              : High Efficiency Video Coding
Format profile                           : Main 10@L5.1@Main
Codec ID                                 : 36
Duration                                 : 1 h 32 min
Bit rate                                 : 16.8 Mb/s
Maximum bit rate                         : 17.7 Mb/s
Width                                    : 3 840 pixels
Height                                   : 2 160 pixels
Display aspect ratio                     : 16:9
Frame rate                               : 59.940 (60000/1001) FPS
Color space                              : YUV
Chroma subsampling                       : 4:2:0 (Type 0)
Bit depth                                : 10 bits
Bits/(Pixel*Frame)                       : 0.034
Stream size                              : 10.9 GiB (94%)
Color range                              : Limited
Color primaries                          : BT.709
Transfer characteristics                 : BT.709
Matrix coefficients                      : BT.709

Audio
ID                                       : 4369 (0x1111)
Menu ID                                  : 442 (0x1BA)
Format                                   : AC-3
Format/Info                              : Audio Coding 3
Commercial name                          : Dolby Digital
Codec ID                                 : 6
Duration                                 : 1 h 32 min
Bit rate mode                            : Constant
Bit rate                                 : 192 kb/s
Maximum bit rate                         : 203 kb/s
Channel(s)                               : 2 channels
Channel layout                           : L R
Sampling rate                            : 48.0 kHz
Frame rate                               : 31.250 FPS (1536 SPF)
Compression mode                         : Lossy
Delay relative to video                  : 15 ms
Stream size                              : 128 MiB (1%)
Language                                 : Portuguese
Service kind                             : Complete Main

</pre>
</div>
<div class="bbCodeBlock bbCodeVfcHH HiddenContent">
<div class="attribution type">Hidden Content:</div>
<blockquote>You must reply before you can see the hidden data contained here.</blockquote>
</div>
<div class="messageTextEndMarker">&nbsp;</div>
</blockquote>
</article>]]></description>
                <author><![CDATA[ilya2129]]></author>
                </item>

                
                <item>
                <title><![CDATA[【Albums (lossless)】Madonna American Life [CD to Flac 16bits/44.1kHz] Album]]></title>
                <link><![CDATA[https://sharemania.us/threads/madonna-american-life-cd-to-flac-16bits-44-1khz-album.228090/]]></link>
                <description><![CDATA[<article>
<blockquote class="messageText SelectQuoteContainer ugc baseHtml">
<img src="https://static.qobuz.com/images/covers/62/39/0093624843962_600.jpg" class="bbCodeImage LbImage" alt="[​IMG]" data-url="https://static.qobuz.com/images/covers/62/39/0093624843962_600.jpg" style=""> <br>
<br>
Artist : Madonna<br>
Album : American Life<br>
Year : 20 April 2003<br>
Genre: Pop<br>
Composer: Madonna/Mirwais<br>
Quality : Flac CD 16bits/44.1kHz<br>
Label: Released by Warner Records - Maverick on 5 January 2010<br>
Source : Compact Disk<br>
Size : 332mb<br>
<br>
<b>Tracklist</b><br>
<ul>
<li>01 American Life (Album Version) [explicit]</li>
<li>02 Hollywood (Album Version)</li>
<li>03 I'm so Stupid (Album Version)</li>
<li>04 Love Profusion (Album Version)</li>
<li>05 Nobody Knows Me (Album Version)</li>
<li>06 Nothing Fails (Album Version)</li>
<li>07 Intervention (Album Version)</li>
<li>08 X-Static Process (Album Version)</li>
<li>09 Mother and Father (Album Version)</li>
<li>10 Die Another Day (Album Version)</li>
<li>11 Easy Ride (Album Version)</li>
</ul>Download Link:<br>
<div class="bbCodeBlock bbCodeVfcHH HiddenContent">
<div class="attribution type">Hidden Content:</div>
<blockquote>You must reply before you can see the hidden data contained here.</blockquote>
</div>
<div class="messageTextEndMarker">&nbsp;</div>
</blockquote>
</article>]]></description>
                <author><![CDATA[joaozittoo]]></author>
                </item>

                </channel></rss>